# xmcd CD database file
# Copyright (C) 1993-1998 Ti Kan
#
# Track frame offsets:
#	183
#	18928
#	35848
#	57308
#	68070
#	86680
#	105733
#	118010
#	137708
#	154593
#	168838
#	183815
#	192358
#	207838
#
# Disc length: 2995 seconds
#
# Revision: 2
# Processed by: cddbd v1.4b41PL1 Copyright (c) Steve Scherf et al.
# Submitted via: CDValet v3.31 - Copyright (c) 1997 Greg Leichner
#
DISCID=ba0bb10e
DTITLE=Margareth de Menezes - Kindala
DYEAR=1900
DGENRE=
TTITLE0=Ellegibo Uma Historia de Ifa - Ejigbo
TTITLE1=Fe Cega, Faca Amolada
TTITLE2=Paz do Mundo (Pwazon Rat)
TTITLE3=Mosca na Sopa
TTITLE4=Negrume da Noite
TTITLE5=Jet Ski
TTITLE6=Negro Nago
TTITLE7=Me Abraca e Me Beija
TTITLE8=Repique Romantico
TTITLE9=Kindala
TTITLE10=Menina Dandara
TTITLE11=Vendaval Temporal
TTITLE12=Praga do Ceu
TTITLE13=Samba Reggae Pot Pourri: Faro Divinidades do Egito/ Br
TTITLE13=ilho e Beleza/ Depois Que o Ile Passar/ Deus do Fogo e
TTITLE13=da Justica/ Ellegibo Uma Historia de Ifa - Ejigbo
EXTD=
EXTT0=
EXTT1=
EXTT2=
EXTT3=
EXTT4=
EXTT5=
EXTT6=
EXTT7=
EXTT8=
EXTT9=
EXTT10=
EXTT11=
EXTT12=
EXTT13=
PLAYORDER=
